<svg width="1440" height="514" viewBox="0 0 1440 514" fill="none" xmlns="http://www.w3.org/2000/svg">
<path d="M-278.39 235.115C-55.1115 337.658 113.825 339.959 228.091 322.375C339.403 305.121 361.73 274.555 498.981 254.013C673.172 227.885 809.273 251.384 953.584 277.513C1083.77 301.177 1262.8 376.417 1467.69 470.086" stroke="#F4CE12" stroke-width="1.5" stroke-miterlimit="10"/>
<path d="M317.567 119.589L578.935 284.578L767.408 128.956L1043.06 383.67L1224.31 39.3954L772.169 147.854L322.164 131.421L-5.20215 305.777" stroke="#F4CE12" stroke-width="1.5" stroke-miterlimit="10"/>
<path d="M-12.2617 334.206L578.935 277.512L1031.24 364.772L1469.26 496.895L1250.25 46.4619" stroke="#F4CE12" stroke-width="1.5" stroke-miterlimit="10"/>
<path d="M326.727 108.511C343.174 108.511 356.507 121.844 356.507 138.29C356.507 154.737 343.174 168.07 326.727 168.07C310.281 168.07 296.948 154.737 296.948 138.29C296.948 121.844 310.281 108.511 326.727 108.511Z" fill="#F4CE12"/>
<path d="M578.832 261.895C591.223 261.895 601.269 271.94 601.269 284.332C601.269 296.723 591.223 306.768 578.832 306.768C566.441 306.768 556.396 296.723 556.396 284.332C556.396 271.94 566.441 261.895 578.832 261.895Z" fill="#F4CE12"/>
<path d="M762.811 106.879C783.989 106.879 801.157 124.23 801.157 145.633C801.157 167.037 783.989 184.387 762.811 184.387C741.633 184.387 724.465 167.037 724.465 145.633C724.465 124.23 741.633 106.879 762.811 106.879Z" fill="#F4CE12"/>
<path d="M1040.21 336.956C1056.88 336.956 1070.4 350.471 1070.4 367.143C1070.4 383.815 1056.88 397.33 1040.21 397.33C1023.54 397.33 1010.02 383.815 1010.02 367.143C1010.02 350.471 1023.54 336.956 1040.21 336.956Z" fill="#F4CE12"/>
<path d="M1454.67 450.362C1472.24 450.362 1486.49 464.608 1486.49 482.181C1486.49 499.754 1472.24 514 1454.67 514C1437.1 514 1422.85 499.754 1422.85 482.181C1422.85 464.608 1437.1 450.362 1454.67 450.362Z" fill="#F4CE12"/>
<path d="M1233.98 -7.62939e-06C1262.14 -7.62939e-06 1284.97 23.0126 1284.97 51.4C1284.97 79.7874 1262.14 102.8 1233.98 102.8C1205.82 102.8 1182.99 79.7874 1182.99 51.4C1182.99 23.0126 1205.82 -7.62939e-06 1233.98 -7.62939e-06Z" fill="#F4CE12"/>
</svg>
