<svg width="26" height="25" viewBox="0 0 26 25" fill="none" xmlns="http://www.w3.org/2000/svg">
<path d="M24.54 7.42C24.4212 6.94541 24.1793 6.51057 23.8386 6.15941C23.498 5.80824 23.0707 5.55318 22.6 5.42C20.88 5 14 5 14 5C14 5 7.11999 5 5.39999 5.46C4.92924 5.59318 4.50197 5.84824 4.16134 6.19941C3.82071 6.55057 3.57878 6.98541 3.45999 7.46C3.14521 9.20556 2.99123 10.9763 2.99999 12.75C2.98877 14.537 3.14276 16.3213 3.45999 18.08C3.59095 18.5398 3.8383 18.9581 4.17814 19.2945C4.51797 19.6308 4.93881 19.8738 5.39999 20C7.11999 20.46 14 20.46 14 20.46C14 20.46 20.88 20.46 22.6 20C23.0707 19.8668 23.498 19.6118 23.8386 19.2606C24.1793 18.9094 24.4212 18.4746 24.54 18C24.8524 16.2676 25.0063 14.5103 25 12.75C25.0112 10.963 24.8572 9.1787 24.54 7.42Z" fill="white"/>
<path d="M11.75 16.02L17.5 12.75L11.75 9.47998V16.02Z" fill="#F4CE12"/>
<path d="M22.54 6.42C22.4212 5.94541 22.1793 5.51057 21.8386 5.15941C21.498 4.80824 21.0707 4.55318 20.6 4.42C18.88 4 12 4 12 4C12 4 5.11999 4 3.39999 4.46C2.92924 4.59318 2.50197 4.84824 2.16134 5.19941C1.82071 5.55057 1.57878 5.98541 1.45999 6.46C1.14521 8.20556 0.991228 9.97631 0.999992 11.75C0.988771 13.537 1.14276 15.3213 1.45999 17.08C1.59095 17.5398 1.8383 17.9581 2.17814 18.2945C2.51797 18.6308 2.93881 18.8738 3.39999 19C5.11999 19.46 12 19.46 12 19.46C12 19.46 18.88 19.46 20.6 19C21.0707 18.8668 21.498 18.6118 21.8386 18.2606C22.1793 17.9094 22.4212 17.4746 22.54 17C22.8524 15.2676 23.0063 13.5103 23 11.75C23.0112 9.96295 22.8572 8.1787 22.54 6.42V6.42Z" stroke="#1A1919" stroke-width="2" stroke-linecap="round" stroke-linejoin="round"/>
<path d="M9.75 15.02L15.5 11.75L9.75 8.47998V15.02Z" stroke="#1A1919" stroke-width="2" stroke-linecap="round" stroke-linejoin="round"/>
</svg>
