<svg width="22" height="21" viewBox="0 0 22 21" fill="none" xmlns="http://www.w3.org/2000/svg">
<path d="M15 6.90894C16.5913 6.90894 18.1174 7.53149 19.2426 8.63964C20.3679 9.74779 21 11.2508 21 12.8179V19.7117H17V12.8179C17 12.2955 16.7893 11.7945 16.4142 11.4252C16.0391 11.0558 15.5304 10.8483 15 10.8483C14.4696 10.8483 13.9609 11.0558 13.5858 11.4252C13.2107 11.7945 13 12.2955 13 12.8179V19.7117H9V12.8179C9 11.2508 9.63214 9.74779 10.7574 8.63964C11.8826 7.53149 13.4087 6.90894 15 6.90894V6.90894Z" stroke="black" stroke-width="2" stroke-linecap="round" stroke-linejoin="round"/>
<path d="M5 7.8938H1V19.7118H5V7.8938Z" stroke="black" stroke-width="2" stroke-linecap="round" stroke-linejoin="round"/>
<path d="M5 4.93933C6.10457 4.93933 7 4.05748 7 2.96966C7 1.88185 6.10457 1 5 1C3.89543 1 3 1.88185 3 2.96966C3 4.05748 3.89543 4.93933 5 4.93933Z" fill="#F4CE12"/>
<path d="M3 4.93933C4.10457 4.93933 5 4.05748 5 2.96966C5 1.88185 4.10457 1 3 1C1.89543 1 1 1.88185 1 2.96966C1 4.05748 1.89543 4.93933 3 4.93933Z" stroke="black" stroke-width="2" stroke-linecap="round" stroke-linejoin="round"/>
</svg>
