<svg width="26" height="25" viewBox="0 0 26 25" fill="none" xmlns="http://www.w3.org/2000/svg">
<path d="M19 3H9C6.23858 3 4 5.23858 4 8V18C4 20.7614 6.23858 23 9 23H19C21.7614 23 24 20.7614 24 18V8C24 5.23858 21.7614 3 19 3Z" fill="white"/>
<path d="M18 12.3701C18.1234 13.2023 17.9813 14.0523 17.5938 14.7991C17.2063 15.5459 16.5932 16.1515 15.8416 16.5297C15.0901 16.908 14.2385 17.0397 13.4078 16.906C12.5771 16.7723 11.8098 16.3801 11.2149 15.7852C10.6199 15.1903 10.2277 14.4229 10.0941 13.5923C9.96042 12.7616 10.0921 11.91 10.4703 11.1584C10.8486 10.4069 11.4542 9.7938 12.201 9.4063C12.9478 9.0188 13.7978 8.87665 14.63 9.00006C15.4789 9.12594 16.2649 9.52152 16.8717 10.1284C17.4785 10.7352 17.8741 11.5211 18 12.3701Z" fill="#F4CE12"/>
<path d="M19.5 7.5H19.51" stroke="#F4CE12" stroke-width="2" stroke-linecap="round" stroke-linejoin="round"/>
<path d="M17 2H7C4.23858 2 2 4.23858 2 7V17C2 19.7614 4.23858 22 7 22H17C19.7614 22 22 19.7614 22 17V7C22 4.23858 19.7614 2 17 2Z" stroke="#1A1919" stroke-width="2" stroke-linecap="round" stroke-linejoin="round"/>
<path d="M16 11.3701C16.1234 12.2023 15.9813 13.0523 15.5938 13.7991C15.2063 14.5459 14.5932 15.1515 13.8416 15.5297C13.0901 15.908 12.2385 16.0397 11.4078 15.906C10.5771 15.7723 9.80977 15.3801 9.21485 14.7852C8.61993 14.1903 8.22774 13.4229 8.09408 12.5923C7.96042 11.7616 8.09208 10.91 8.47034 10.1584C8.8486 9.40691 9.4542 8.7938 10.201 8.4063C10.9478 8.0188 11.7978 7.87665 12.63 8.00006C13.4789 8.12594 14.2649 8.52152 14.8717 9.12836C15.4785 9.73521 15.8741 10.5211 16 11.3701Z" stroke="#1A1919" stroke-width="2" stroke-linecap="round" stroke-linejoin="round"/>
<path d="M17.5 6.5H17.51" stroke="#1A1919" stroke-width="2" stroke-linecap="round" stroke-linejoin="round"/>
</svg>
