<svg width="96" height="96" viewBox="0 0 96 96" fill="none" xmlns="http://www.w3.org/2000/svg">
<path d="M47.9952 96C21.4866 96 0 74.5103 0 47.9976C0 21.485 21.4866 0 47.9952 0C74.5037 0 96 21.4897 96 47.9976C96 74.5055 74.4989 96 47.9952 96Z" fill="#0C243D"/>
<path d="M71.9278 66.1071H24.0098V68.0176H71.9278V66.1071Z" fill="#288F45"/>
<path d="M36.6681 66.1071H32.9053V68.0176H36.6681V66.1071Z" fill="#007E40"/>
<path d="M47.4403 66.1071H36.6729V68.0176H47.4403V66.1071Z" fill="#15B04B"/>
<path d="M52.8241 66.1071H47.4404V68.0176H52.8241V66.1071Z" fill="#7FC242"/>
<path d="M64.3826 66.1071H52.824V68.0176H64.3826V66.1071Z" fill="#AFD136"/>
<path d="M30.4981 30.7687L28.5684 36.2273H32.3891L30.4981 30.7687ZM24.1206 41.4369L29.4271 27.934H31.5594L36.8659 41.4369H34.0921L32.8571 38.0851H28.1198L26.8848 41.4369H24.1206Z" fill="white"/>
<path d="M44.4592 41.4376V27.8485H47.1028V39.1201H54.0303V41.4376H44.4592Z" fill="white"/>
<path d="M71.7928 30.1612H67.4656V41.4376H64.8219V30.1612H60.4802V27.8485H71.7928V30.1612Z" fill="white"/>
<path d="M34.4297 59.7089V51.1379L31.0962 57.5206H29.7262L26.3879 51.1379V59.7089H23.8745V46.7614H26.5712L30.4015 54.1306L34.2657 46.7614H36.9479V59.7089H34.4297Z" fill="white"/>
<path d="M47.0736 53.1501H50.2286C50.4546 53.152 50.6773 53.0959 50.875 52.9873C51.0794 52.8764 51.2572 52.7228 51.396 52.5372C51.5486 52.3363 51.6661 52.1113 51.7434 51.8716C51.8279 51.6068 51.8702 51.3306 51.8688 51.0528C51.8713 50.7672 51.8223 50.4834 51.7241 50.2149C51.6348 49.9717 51.5024 49.7463 51.3333 49.5493C51.1757 49.3656 50.982 49.2157 50.7641 49.1088C50.5631 49.0098 50.342 48.9574 50.1176 48.9556H47.0736V53.1501ZM44.5554 59.71V46.7817H50.2817C50.8535 46.7757 51.4188 46.9037 51.9315 47.1552C52.4272 47.3974 52.8711 47.7323 53.2388 48.1416C53.6032 48.5512 53.8922 49.0212 54.0927 49.5302C54.2954 50.0244 54.4003 50.5527 54.4014 51.0863C54.4122 51.8925 54.1949 52.6855 53.7743 53.3751C53.3826 54.0391 52.7853 54.5597 52.0714 54.8595L55.1154 59.7292H52.2692L49.5532 55.391H47.0736V59.7292L44.5554 59.71Z" fill="white"/>
<path d="M60.8127 59.7089V46.7806H63.3261V53.0915L68.9269 46.7614H71.5319L66.5727 52.5073L71.8455 59.7089H69.1826L65.0628 53.9294L63.3261 55.8065V59.7089H60.8127Z" fill="white"/>
</svg>
