<svg width="297" height="218" viewBox="0 0 297 218" fill="none" xmlns="http://www.w3.org/2000/svg">
<path d="M38.4076 216L109.626 216C110.511 216 110.96 214.935 110.341 214.301L77.3579 180.524C76.981 180.138 76.9782 179.523 77.3516 179.133L110.377 144.692C110.987 144.056 110.536 143 109.656 143L38.4129 143C38.1485 143 37.8948 143.105 37.7074 143.291L1.71845 179.117C1.32326 179.51 1.32617 180.151 1.72493 180.54L37.7085 215.715C37.8954 215.898 38.1463 216 38.4076 216Z" stroke="#0B27FA" stroke-width="2.5"/>
<path d="M118.6 178.841L294.208 178.841C295.092 178.841 295.541 177.778 294.925 177.144L212.108 91.9152C211.733 91.5296 211.73 90.9169 212.101 90.5279L294.961 3.69055C295.568 3.05414 295.117 2.00021 294.237 2.00021L118.606 2.00021C118.34 2.00021 118.086 2.10562 117.898 2.29323L29.7132 90.5112C29.3203 90.9042 29.3232 91.5421 29.7196 91.9315L117.899 178.555C118.086 178.738 118.338 178.841 118.6 178.841Z" stroke="#25DFB8" stroke-width="2.5"/>
</svg>
