<svg width="20" height="20" viewBox="0 0 20 20" fill="none" xmlns="http://www.w3.org/2000/svg">
<path fill-rule="evenodd" clip-rule="evenodd" d="M0 7.34973C0 3.40989 3.33367 0.185303 7.40673 0.185303C11.4798 0.185303 14.8134 3.40989 14.8134 7.34973C14.8134 8.80433 14.3573 10.1643 13.579 11.2976L19.3192 16.85C19.8977 17.4096 19.8977 18.3129 19.3192 18.8725C18.7407 19.432 17.7991 19.432 17.2206 18.8725L11.4881 13.3275C10.3165 14.0803 8.91051 14.5141 7.40673 14.5141C3.33367 14.5141 0 11.2895 0 7.34973ZM11.8507 7.34973C11.8507 4.9587 9.87854 3.05107 7.40669 3.05107C4.93482 3.05107 2.96265 4.9587 2.96265 7.34973C2.96265 9.74074 4.93482 11.6484 7.40669 11.6484C9.87854 11.6484 11.8507 9.74074 11.8507 7.34973Z" fill="#1A1919"/>
</svg>
